# xmcd
#
# Track frame offsets:
#	150
#	24431
#	35723
#	52900
#	73079
#	84095
#	103024
#	121002
#	134394
#	163436
#	176779
#	231728
#	249011
#	286085
#	322719
#
# Disc length: 4774 seconds
#
# Revision: 0
# Processed by: cddbd v1.5.2PL0 Copyright (c) Steve Scherf et al.
# Submitted via: audiograbber 1.83.01
#
DISCID=c612a40f
DTITLE=Driftin - Streusalzer
DYEAR=2007
DGENRE=Blues
TTITLE0=Red House
TTITLE1=Jumping at Shadows
TTITLE2=Sweet home Chicago/ Kansas City
TTITLE3=Road Ladies
TTITLE4=Ticket to Ride
TTITLE5=Evil Ways
TTITLE6=All along the Watchtower
TTITLE7=Walking on Sunset
TTITLE8=spoonful
TTITLE9=Framed
TTITLE10=Timbales Jam
TTITLE11=Baby what you want me to do
TTITLE12=Hyper Space Jam
TTITLE13=Orange Groove
TTITLE14=Quiet Jam
EXTD=
EXTT0=
EXTT1=
EXTT2=
EXTT3=
EXTT4=
EXTT5=
EXTT6=
EXTT7=
EXTT8=
EXTT9=
EXTT10=
EXTT11=
EXTT12=
EXTT13=
EXTT14=
PLAYORDER=
